<!DOCTYPE svg PUBLIC "-//W3C//DTD SVG 1.1//EN" "http://www.w3.org/Graphics/SVG/1.1/DTD/svg11.dtd">
<!-- Uploaded to: SVG Repo, www.svgrepo.com, Transformed by: SVG Repo Mixer Tools -->
<svg width="64px" height="64px" viewBox="-76.58 0 389.919 389.919" xmlns="http://www.w3.org/2000/svg" fill="#000000" stroke="#000000">
<g id="SVGRepo_bgCarrier" stroke-width="0"/>
<g id="SVGRepo_tracerCarrier" stroke-linecap="round" stroke-linejoin="round"/>
<g id="SVGRepo_iconCarrier">
<defs>
<style>.a{fill:#3B5998;}.b{fill:#333333;}.c{fill:#ffffff;}.d{fill:#EDEDED;}</style>
</defs>
<path class="a" d="M81.985,142a45.779,45.779,0,0,1-12.372-10.629,51.093,51.093,0,0,1-9.736-19.006l-1.92-.3a12.658,12.658,0,0,1-5.887-2.654,16.863,16.863,0,0,1-3.405-3.81,30.1,30.1,0,0,0-.84,4.157,44.175,44.175,0,0,0-.3,6.015c.007.409.023.819.045,1.229.239,4.387,1.263,8.856,1.48,13.225.22,4.762-1.019,9.449-5.56,10.991-.18.061-.216.642-.211.79a2.07,2.07,0,0,0,.365,1.017,7.025,7.025,0,0,0,2.328,2.042c5.065,3.1,12.857,4.944,21.1,3.69C73.228,147.825,78.631,145.234,81.985,142Z"/>
<path class="b" d="M48.475,99.529c-3.1,6.147-3.834,13.184-3.1,19.971.4,3.695,1.173,7.368,1.285,11.091.069,2.274-.121,4.93-1.611,6.778a5.4,5.4,0,0,1-2.2,1.535c-2.033.872-2.412,3.154-1.46,5.019,1.372,2.69,4.768,4.138,7.426,5.217a36.043,36.043,0,0,0,20.172,1.717c6.488-1.25,13.257-4.423,17.08-10.011,1.749-2.556-2.409-4.959-4.145-2.422-3.64,5.32-11.258,7.754-17.4,8.23a32.2,32.2,0,0,1-11.329-1.075,24.537,24.537,0,0,1-4.509-1.736,15.837,15.837,0,0,1-2.156-1.261c-.24-.178-.471-.487-.716-.634-.3-.182-.031-.281-.121.037l-.617,1.059.111-.128-1.059.617c7.8-2.821,7.741-11.358,6.817-18.272-1.048-7.846-2.031-15.958,1.678-23.309,1.388-2.751-2.752-5.184-4.145-2.423Z"/>
<path class="c" d="M157.008,81.346a7.508,7.508,0,0,1,6.009-1.758,7.091,7.091,0,0,1,5.1,3.389,10.035,10.035,0,0,1,1.05,4.033,30.054,30.054,0,0,1-3.063,15.926,19.1,19.1,0,0,1-4.938,6.48,12.658,12.658,0,0,1-5.887,2.654l-1.008.155c-.483,1.808-1.026,3.332-1.292,4.141-1.809,4.908-12.386,22.559-25.394,27.5.129,1.068.3,2.139.489,3.2.6,3.45.41,6.53,5.2,8.26.32.12,14.71,5.19,15.2,5.39,0,0-8.819,28.752-44.671,28.752s-41.292-29.418-41.292-29.418c.923-.315,14.577-4.608,14.894-4.723,4.792-1.73,4.6-4.811,5.207-8.258q.382-2.182.636-4.372a44.755,44.755,0,0,1-13.633-11.327,51.093,51.093,0,0,1-9.736-19.006l-1.92-.3a12.658,12.658,0,0,1-5.887-2.654,19.1,19.1,0,0,1-4.938-6.48A30.054,30.054,0,0,1,44.069,87.01a10.035,10.035,0,0,1,1.05-4.033,7.091,7.091,0,0,1,5.1-3.389,7.508,7.508,0,0,1,6.009,1.758s-2.8-43.581,49.057-43.581S157.008,81.346,157.008,81.346Z"/>
<path class="d" d="M163.942,166.026c-4.375-2.268-8.8-4.281-13.5-6.3-26.542,19.151-67.32,15.661-89.195-.583-9.475,4.036-17.744,7.931-26.656,13.77-6.175,4.045-16.093,12.314-21.389,25.48C7.2,213.553,2.419,245.571,2.436,262.5c.008,7.391,4.218,18.209,10.764,22.378,8.6,5.478,18.751,7.134,28.143,3.506,1.089-.421,2.486-.987,4.11-1.662,0,.418,0,.634,0,.634,0,2.107-.071,21.353-.071,24.185l155.845.69c-.584-29.5-.35-65.061-2.029-93.485-.39-6.592-.846-13.392-2.477-19.752a67.4,67.4,0,0,0-4.873-11.176c-3.82-6.316-9.939-10.866-16.113-14.911A132.6,132.6,0,0,0,163.942,166.026Z"/>
<path class="c" d="M4.58,387.6c-.015-3.45.141-36.56.083-44.583a2.029,2.029,0,0,1,.307-1.09c5.287-8.535,25.046-39.1,28.191-43.051,13.15.053,24.245.214,37.6.214,3.34,0,15.308.021,25.009.051l46.194.175c16.792.048,37.749.085,48.253.085,7.876,0,14.15.2,19.92.184,2.462,4.5,19.471,36.222,23.834,44.031a2.04,2.04,0,0,1,.262,1c.006,7.594.126,39.672.124,42.8Z"/>
<path class="b" d="M15.517,199.025a52.011,52.011,0,0,1,13.538-18.834c5.505-4.958,12.187-8.824,18.888-12.274,4.74-2.44,9.61-4.614,14.511-6.708H60.031c9.553,7.052,21.273,11.106,32.94,12.862a87.69,87.69,0,0,0,38.92-2.591,68.99,68.99,0,0,0,19.763-9.691h-2.423a162.366,162.366,0,0,1,27.557,14.705,50.1,50.1,0,0,1,10.975,9.628c3.1,3.854,5.178,8.815,6.645,13.513,1.614,5.165,1.87,10.914,2.22,16.277.328,5.027.571,10.059.771,15.093.425,10.721.642,21.45.8,32.178.177,12.107.267,24.216.425,36.324.041,3.086,4.841,3.095,4.8,0-.315-24.127-.3-48.273-1.387-72.382-.265-5.878-.521-11.775-1.131-17.628a82.765,82.765,0,0,0-1.484-9.539,50.27,50.27,0,0,0-3.074-8.5,37.592,37.592,0,0,0-10.129-13.773,97.515,97.515,0,0,0-14.187-9.914,156.687,156.687,0,0,0-15.46-7.955q-2.034-.919-4.084-1.807a4.416,4.416,0,0,0-2.363-.644,5,5,0,0,0-2.076,1.118,62.408,62.408,0,0,1-6.179,3.731,72.036,72.036,0,0,1-26.76,7.753c-17.576,1.668-36.762-1.76-51.424-12.011-1.2-.841-2.109-1.542-3.653-.886s-3.055,1.312-4.575,1.987c-2.618,1.161-5.219,2.363-7.785,3.635a129.633,129.633,0,0,0-14.862,8.527,60.411,60.411,0,0,0-18.283,19.092,55.862,55.862,0,0,0-3.638,7.443,2.415,2.415,0,0,0,1.676,2.952,2.46,2.46,0,0,0,2.953-1.676Z"/>
<path class="b" d="M141.964,301.717c17.582.05,35.168-.045,52.749.105,5.142.044,10.283.173,15.424.164l-2.072-1.189c6.186,11.307,12.222,22.7,18.364,34.026q2.143,3.953,4.3,7.9.387.7.775,1.4c.1.18.2.357.3.539.086.161.076.311.027-.047a2.1,2.1,0,0,1,0,.372c-.085,1.083,0,2.21.006,3.3q.025,10.644.065,21.288c.019,5.946.055,11.893.053,17.839,0,3.089,4.8,3.094,4.8,0,0-12.487-.081-24.975-.113-37.462-.007-2.595.437-5.675-.856-8s-2.549-4.64-3.814-6.966q-5.494-10.111-10.94-20.249c-2.939-5.454-5.851-10.923-8.824-16.357a2.4,2.4,0,0,0-2.073-1.189c-8.551.015-17.1-.18-25.654-.187q-13.188-.01-26.377-.042-8.07-.016-16.142-.04c-3.089-.009-3.093,4.791,0,4.8Z"/>
<path class="b" d="M6.98,387.6c-.051-12.7.09-25.394.1-38.09q0-2.137,0-4.274,0-.749,0-1.5c0-.719-.063-.54.279-1.09,1.489-2.391,3-4.767,4.519-7.14q6.32-9.894,12.754-19.714,3.276-5,6.6-9.967c.8-1.187,1.6-2.372,2.422-3.546.285-.409.571-.816.863-1.22.124-.172.253-.343.377-.516.373-.516-.3.379-.024.027l-1.7.7c16.166.067,32.331.2,48.5.23q7.056.014,14.112.035c3.089.009,3.093-4.791,0-4.8-14.7-.046-29.408-.026-44.111-.14q-6.5-.049-13.009-.1l-3.315-.018c-1.186-.006-2.636-.262-3.628.5a7.673,7.673,0,0,0-1.347,1.649c-2.187,3.026-4.23,6.161-6.291,9.273Q15.208,321.293,6.6,334.838q-1.542,2.424-3.07,4.857a6.6,6.6,0,0,0-1.269,3.446c-.021.7.007,1.4.008,2.1.012,4.583,0,9.166-.012,13.748-.022,9.156-.073,18.311-.081,27.466q0,.576,0,1.15c.013,3.088,4.813,3.094,4.8,0Z"/>
<path class="c" d="M96.671,263.161c.026,17.254.135,42.716.135,58.017v.245c6.908-.008,11.477-.065,21.231-.065,11.054,0,5.561.036,22.682.046.151,3.9-.275-21.33-.275-27.108,0-6.492.072-35.25.072-36.605-1.653,0-37.075.1-43.85.1C96.667,259.466,96.669,261.264,96.671,263.161Z"/>
<path class="b" d="M34.512,348.3c8.517.03,17.034.012,25.55,0q17.679-.014,35.357-.038,12-.015,24-.022,16.929,0,33.858.022,22.007.017,44.012.023h4.966c3.089,0,3.094-4.8,0-4.8q-21.82,0-43.64-.019-18.24-.012-36.48-.025-11.4,0-22.794.016-17.531.021-35.059.039-13.935.013-27.871,0l-1.9,0c-3.089-.011-3.093,4.789,0,4.8Z"/>
<path class="b" d="M99.206,321.178c0-16.909-.081-33.817-.12-50.726q-.015-6.33-.02-12.66l-2.4,2.4c12.831,0,25.663-.055,38.494-.088q2.679-.007,5.356-.013l-2.4-2.4c0,7.87-.035,15.74-.051,23.61-.017,8.453,0,16.9.109,25.351.065,4.9.174,9.805.178,14.706,0,3.089,4.8,3.094,4.8,0-.007-8.931-.29-17.86-.307-26.791-.017-8.964.029-17.928.05-26.892.007-3.328.021-6.656.021-9.984a2.434,2.434,0,0,0-2.4-2.4c-11.95,0-23.9.063-35.851.088q-4,.009-8,.013a2.435,2.435,0,0,0-2.4,2.4c.006,16.9.087,33.789.124,50.684q.014,6.351.016,12.7c0,3.089,4.8,3.094,4.8,0Z"/>
<path class="b" d="M87.5,323.817c11.4.04,22.808-.07,34.212-.057,3.68,0,7.36.028,11.039.035q9.339.018,18.677.012c3.089,0,3.094-4.8,0-4.8-8.068,0-16.136.009-24.2-.029q-9.45-.045-18.9,0c-6.943.03-13.885.063-20.827.038-3.089-.011-3.093,4.789,0,4.8Z"/>
<path class="b" d="M80.778,143.279c-.193,1.53-.476,3.047-.705,4.572-.079.528-.158,1.057-.267,1.58-.053.252-.112.5-.182.751-.038.134-.264.783-.2.636.079-.184-.2.382-.269.488a4.3,4.3,0,0,1-.246.369c.075-.1.252-.271-.062.044a4.038,4.038,0,0,1-1.309.95,7.845,7.845,0,0,1-1.289.512c-3.461,1.1-6.929,2.189-10.393,3.286-1.328.42-2.664.824-3.984,1.27a2.456,2.456,0,0,0-1.676,2.952,2.423,2.423,0,0,0,2.952,1.676c3.278-1.107,6.6-2.1,9.9-3.139,3.694-1.166,8.316-2.009,10.363-5.686a12.207,12.207,0,0,0,1.259-4.182c.309-2.026.654-4.045.911-6.079a2.413,2.413,0,0,0-2.4-2.4,2.46,2.46,0,0,0-2.4,2.4Z"/>
<path class="b" d="M125.182,143.867c.232,1.837.554,3.659.831,5.489a13,13,0,0,0,1.108,3.893c1.17,2.374,3.463,3.658,5.859,4.516,3.594,1.286,7.2,2.542,10.8,3.817,1.351.479,2.724.921,4.057,1.449a2.417,2.417,0,0,0,2.953-1.676,2.456,2.456,0,0,0-1.677-2.952c-2.911-1.154-5.916-2.108-8.868-3.151q-2.526-.892-5.05-1.785a8.327,8.327,0,0,1-3.439-1.836c-.265-.284.169.26-.047-.048a5.132,5.132,0,0,1-.292-.467c-.052-.1-.1-.192-.149-.289-.121-.241.092.3-.048-.126a12.857,12.857,0,0,1-.448-1.825c-.291-1.66-.576-3.338-.787-5.009a2.477,2.477,0,0,0-2.4-2.4,2.414,2.414,0,0,0-2.4,2.4Z"/>
<path class="b" d="M160.063,218.657c0,9.371-.087,18.741-.155,28.112q-.13,17.913-.247,35.825-.047,8.326-.058,16.653c0,3.088,4.8,3.094,4.8,0,0-10.635.081-21.27.155-31.9q.122-17.39.247-34.779c.029-4.635.057-9.271.058-13.907,0-3.089-4.8-3.094-4.8,0Z"/>
<path class="b" d="M43.054,287.358c0,3.667-.07,7.333-.071,11a2.4,2.4,0,1,0,4.8,0c0-3.667.069-7.333.071-11a2.4,2.4,0,0,0-4.8,0Z"/>
<path class="a" d="M164.981,50.252c-.2-1.212-.415-2.329-.619-3.325-5.23-25.61-31.02-45.94-58.07-44.45-27.04-1.49-52.84,18.84-58.06,44.45-1.41,6.91-1.27,18.94.01,24.46l2.3,8.164a7.213,7.213,0,0,1,6.646,2.905c10.777-7.5,28.134-19.865,37.25-27.7-.773,4.792-3.517,12.944-.06,12.106,14.433-3.342,28.266-10.082,36.63-20.6,1.763,6.209,4.677,14.6,6.817,18.261,2.872,4.918,10.912,15.665,18.027,18.252A7.282,7.282,0,0,1,164.559,80C167.531,71.331,166.385,58.567,164.981,50.252Z"/>
<path class="b" d="M50.557,70.749a46.081,46.081,0,0,1-.892-8.842,82.307,82.307,0,0,1,.359-10.867,46.665,46.665,0,0,1,6.194-18.324A56.961,56.961,0,0,1,87.185,7.506a52.577,52.577,0,0,1,9.95-2.314c3.542-.447,7.054-.28,10.6-.374a52.257,52.257,0,0,1,20.175,3.59,56.815,56.815,0,0,1,29.716,26.61,57.341,57.341,0,0,1,5.4,18.2c1.017,6.931,1.577,14.306.414,21.252a31.943,31.943,0,0,1-1.2,4.877c-.983,2.936,3.651,4.195,4.629,1.276,2.423-7.237,2.239-15.322,1.509-22.827-.666-6.847-1.746-13.777-4.331-20.188A61.019,61.019,0,0,0,134.488,6.087,58.838,58.838,0,0,0,112.958.145a51.412,51.412,0,0,0-5.579-.116c-1.806.06-3.61-.06-5.419-.006A56.509,56.509,0,0,0,90.7,1.517a61.958,61.958,0,0,0-35.889,24.5A54.413,54.413,0,0,0,46.063,45.6a69.293,69.293,0,0,0-.828,21.971,40.034,40.034,0,0,0,.693,4.45c.679,3.012,5.308,1.737,4.629-1.276Z"/>
<path class="b" d="M128.908,47.653c1.051,3.592,2.217,7.154,3.544,10.653a47.876,47.876,0,0,0,3.69,8.077,60.567,60.567,0,0,0,11.547,13.955c2.522,2.2,5.386,4.272,8.681,5.1,3,.752,4.275-3.875,1.276-4.629-5-1.255-9.3-6.184-12.56-10.146a46.828,46.828,0,0,1-7.728-12.911c-1.447-3.729-2.7-7.537-3.821-11.375-.866-2.958-5.5-1.7-4.629,1.276Z"/>
<path class="b" d="M129.457,44.382a51.828,51.828,0,0,1-17.729,13.852,75.664,75.664,0,0,1-11.2,4.466q-2.865.9-5.784,1.605c-.268.065-.537.128-.806.192-.5.119,0-.007.078.018a4.438,4.438,0,0,1,.664.272c.132.1.647.787.429.488-.158-.216-.036-.13-.01.088a5.285,5.285,0,0,1-.027-.533c-.048-3,1.153-6.289,1.677-9.439a2.422,2.422,0,0,0-4.011-2.336C83.326,61.132,73.1,68.312,62.984,75.469q-3.972,2.81-7.969,5.582a2.462,2.462,0,0,0-.861,3.284,2.42,2.42,0,0,0,3.283.861C68.017,77.855,78.527,70.385,88.7,62.48c2.52-1.959,5.016-3.952,7.439-6.03l-4.011-2.336c-.568,3.408-1.7,6.779-1.841,10.249a4.926,4.926,0,0,0,1.486,4.2c1.571,1.265,3.512.565,5.259.12a77.138,77.138,0,0,0,25-10.948,50.513,50.513,0,0,0,10.826-9.96,2.476,2.476,0,0,0,0-3.394,2.416,2.416,0,0,0-3.394,0Z"/>
<path class="b" d="M158.705,83.043a5,5,0,0,1,7.154.839c.933,1.375.964,3.294,1,4.894a26.537,26.537,0,0,1-.365,5.3c-1.157,6.525-4.6,14.419-11.86,15.675a2.421,2.421,0,0,0-1.677,2.953,2.456,2.456,0,0,0,2.953,1.676c7.64-1.321,12.192-8.477,14.325-15.364a31.848,31.848,0,0,0,1.374-11.348c-.24-3.769-1.392-7.348-4.879-9.3a10.025,10.025,0,0,0-11.424,1.274,2.421,2.421,0,0,0,0,3.394,2.45,2.45,0,0,0,3.394,0Z"/>
<path class="b" d="M152.8,106.479a25.285,25.285,0,0,1-1.21,6.394c-.228.762-.478,1.517-.731,2.27-.077.232-.157.462-.236.693-.161.469-.094.234-.031.094a51.1,51.1,0,0,1-3.316,6.085,59.837,59.837,0,0,1-13.318,15.393,25.312,25.312,0,0,1-9.88,5.009c-3.009.693-1.735,5.322,1.276,4.628,7.517-1.731,13.817-7.13,18.781-12.8a64.6,64.6,0,0,0,10.451-15.554,33.142,33.142,0,0,0,3.014-12.214c.105-3.09-4.695-3.086-4.8,0Z"/>
<path class="b" d="M57.923,79.649a9.964,9.964,0,0,0-10-1.922c-3.742,1.462-5.683,4.559-6.165,8.454a31.018,31.018,0,0,0,5.4,21.452,16.262,16.262,0,0,0,10.156,6.751,2.471,2.471,0,0,0,2.953-1.676,2.421,2.421,0,0,0-1.677-2.953c-7.264-1.256-10.7-9.15-11.86-15.675a26.611,26.611,0,0,1-.365-5.3c.04-1.6.063-3.528,1.005-4.894a5,5,0,0,1,7.154-.839,2.463,2.463,0,0,0,3.394,0,2.421,2.421,0,0,0,0-3.394Z"/>
<path class="b" d="M55.945,105.8c2.739,15.791,11.3,31.253,25.921,38.888a35.374,35.374,0,0,0,12.8,3.838,2.417,2.417,0,0,0,2.4-2.4,2.453,2.453,0,0,0-2.4-2.4c-14.97-1.558-26.653-15-31.369-28.477a67.272,67.272,0,0,1-2.726-10.725,2.42,2.42,0,0,0-2.952-1.676,2.455,2.455,0,0,0-1.677,2.952Z"/>
<path class="b" d="M43.165,218.661c-.405,8.034-.474,16.071-1.074,24.1a2.42,2.42,0,0,0,2.4,2.4,2.447,2.447,0,0,0,2.4-2.4c.6-8.026.669-16.063,1.074-24.1.156-3.087-4.644-3.079-4.8,0Z"/>
<path class="b" d="M83.7,266.73c-7.488,4.119-15.484,7.447-23.284,10.917q-6.782,3.017-13.609,5.927l-1.123.473q-.683.285-1.365.568-1.154.477-2.311.942a30.185,30.185,0,0,1-8.022,2.2,30.309,30.309,0,0,1-19.7-5.037C9.7,279.7,7.069,273.857,5.724,268.731c-1.283-4.892-.9-9.953-.572-14.949.384-5.844,1.017-11.676,1.833-17.475,1.616-11.494,3.655-23.165,7.4-34.181q.531-1.563,1.133-3.1a2.417,2.417,0,0,0-1.676-2.953,2.456,2.456,0,0,0-2.952,1.677C6.642,208.539,4.58,220.31,2.841,231.722c-.959,6.294-1.744,12.62-2.26,18.967C.147,256.012-.4,261.552.432,266.858a33.177,33.177,0,0,0,7.815,16.924,24.814,24.814,0,0,0,8.1,5.554A36.444,36.444,0,0,0,27.386,292.5a31.23,31.23,0,0,0,10.94-.659,45.207,45.207,0,0,0,6.58-2.313c4.432-1.819,8.829-3.726,13.215-5.651,8.838-3.879,17.735-7.737,26.337-12.124.559-.286,1.116-.576,1.666-.878,2.707-1.489.288-5.636-2.423-4.145Z"/>
<path class="b" d="M45.684,244.771c.191-.09,1.155-.51.542-.253.429-.18.862-.352,1.3-.52,1.025-.4,2.061-.768,3.1-1.129,2.689-.936,5.4-1.8,8.124-2.635,6.116-1.877,12.281-3.611,18.49-5.158,2.813-.7,5.637-1.369,8.488-1.9a2.422,2.422,0,0,0,1.676-2.952,2.451,2.451,0,0,0-2.952-1.676c-5.6,1.047-11.129,2.528-16.618,4.044-6,1.658-11.988,3.419-17.879,5.441a65.152,65.152,0,0,0-6.688,2.595,2.42,2.42,0,0,0-.861,3.284,2.453,2.453,0,0,0,3.283.861Z"/>
<path class="c" d="M122.715,257.2c-.271-1.524.17-5.438-.274-7.921-.735-5.663-1.511-9.633-3.023-13.128"/>
<path class="c" d="M100.246,225.839c-5.909,1.676-11.926,3.926-14.2,5.846-4.461,3.771-5.6,5.55-7.8,10.969-1.66,4.081-1.809,11.154-.222,14,2.071,3.716,3.333,5.778,7.838,6.893,2.856.707,14.723-1.211,16-4.881a7.844,7.844,0,0,0,5.664,2.448,10.756,10.756,0,0,0,5.7-1.718,7.045,7.045,0,0,0,.714,1.8,5.573,5.573,0,0,0,5.2,2.247c2.12-.274,3.847-1.365,3.847-3.95a5.462,5.462,0,0,0,1.308,2.246c1.707,1.707,5.527,1.21,6.828-1.149,2.177-3.944,2.211-10.36,2-14.6a42.911,42.911,0,0,0-2.235-12.912,10.422,10.422,0,0,0-5.338-5.463c-1.811-.74-5.5-2.613-7.449-2.979-4.231-.794-8.217-.775-14.425.372C103.016,225.148,101.582,225.461,100.246,225.839Z"/>
<path class="b" d="M125.3,257.868c-.073-.444.029.336,0-.017-.014-.151-.032-.3-.046-.454-.037-.395-.065-.792-.091-1.188-.06-.924-.1-1.849-.151-2.774-.1-2.056-.221-4.109-.474-6.153a35.477,35.477,0,0,0-3.043-11.156,2.422,2.422,0,0,0-3.284-.862,2.454,2.454,0,0,0-.861,3.284,31.033,31.033,0,0,1,2.511,9.815c.371,3.578.231,7.227.815,10.781a2.419,2.419,0,0,0,2.953,1.676,2.457,2.457,0,0,0,1.676-2.952Z"/>
<path class="b" d="M99.608,223.525A80.585,80.585,0,0,0,88.9,227.3a23.394,23.394,0,0,0-6.954,4.843,25.5,25.5,0,0,0-7.085,14.085,24.52,24.52,0,0,0,.153,9.133,17.142,17.142,0,0,0,3.6,6.614c3.035,3.685,7.65,4.448,12.116,3.87a32.345,32.345,0,0,0,7.935-1.911c2.334-.939,4.559-2.179,5.515-4.633l-4.011,1.059c3.774,4.018,9.836,3.852,14.275,1.105l-3.526-1.434a7.726,7.726,0,0,0,3.1,4.5,7.884,7.884,0,0,0,5.123,1.305c3.568-.357,6.128-2.673,6.247-6.35l-4.715.638c.972,2.805,2.947,4.814,6.008,5A7.108,7.108,0,0,0,133.2,261.8c2.627-4.453,2.569-10.5,2.345-15.5a58.89,58.89,0,0,0-.962-8.815c-.582-2.94-1.353-5.973-3.257-8.347a15.676,15.676,0,0,0-6.136-4.291,30.155,30.155,0,0,0-6.778-2.591,42.5,42.5,0,0,0-18.8,1.268c-2.974.821-1.711,5.454,1.276,4.629a40.55,40.55,0,0,1,13.719-1.586,27.266,27.266,0,0,1,10.346,3.4c4.021,2.138,4.848,6.918,5.38,11.068a50.315,50.315,0,0,1,.165,13.444c-.237,1.615-.635,4.617-2.019,5.49a1.957,1.957,0,0,1-3.171-1.116,2.412,2.412,0,0,0-4.714.638c-.038,1.162-.59,1.466-1.833,1.586a3.273,3.273,0,0,1-2.315-.686,2.611,2.611,0,0,1-.9-1.634,2.426,2.426,0,0,0-3.525-1.435c-2.672,1.654-6.083,2.174-8.458-.354-1.343-1.43-3.392-.531-4.011,1.059.274-.7.05-.044-.051,0,.316-.135.206-.208-.015-.011-.119.1-.228.221-.347.325.408-.359-.107.074-.181.119A12.373,12.373,0,0,1,96.9,259.5a27.7,27.7,0,0,1-10.348,1.753c-.522,0,.43.1.135.018-.18-.051-.371-.086-.551-.134a11.222,11.222,0,0,1-1.348-.426,5.933,5.933,0,0,1-2.244-1.523,12.99,12.99,0,0,1-2.829-4.823,18.453,18.453,0,0,1-.227-6.781A21.275,21.275,0,0,1,84.692,236.2a18.068,18.068,0,0,1,5.945-4.435,67.662,67.662,0,0,1,10.247-3.607C103.849,227.306,102.588,222.673,99.608,223.525Z"/>
<path class="b" d="M105.908,241.053a48.6,48.6,0,0,1,3.023,8.681c.882,3.383,1.414,6.819,1.976,10.264a2.419,2.419,0,0,0,2.953,1.676,2.457,2.457,0,0,0,1.676-2.952c-1.124-6.886-2.414-13.76-5.483-20.092a2.423,2.423,0,0,0-3.284-.861,2.452,2.452,0,0,0-.861,3.284Z"/>
<path class="b" d="M81.175,89.122c-.823,2.674-.287,8.825,4.78,9.349,6.7-.04,7.052-7.478,4.8-10.974C88.907,84.633,83.481,83.443,81.175,89.122Z"/>
<path class="b" d="M134.795,89.122c.823,2.674.287,8.825-4.779,9.349-6.7-.041-7.053-7.478-4.8-10.975C127.062,84.633,132.489,83.443,134.795,89.122Z"/>
<path class="b" d="M96.68,123.565c2.871,2.81,7.412,3.63,11.265,3.627s8.4-.816,11.268-3.627c2.211-2.164-1.184-5.557-3.394-3.394-.095.093-.583.513-.271.259s-.007,0-.087.055c-.129.084-.255.171-.386.251-.248.153-.5.293-.764.424-.175.088-.352.17-.531.249.325-.143.066-.028-.119.038a16.174,16.174,0,0,1-5.716.945,15.676,15.676,0,0,1-5.614-.906c-.049-.018-.714-.3-.222-.077q-.225-.1-.445-.207c-.289-.143-.573-.3-.848-.466-.208-.129-.4-.292-.612-.415.62.359.051.027-.13-.15-2.209-2.163-5.606,1.228-3.394,3.394Z"/>
<path class="b" d="M107.278,102.461a45.9,45.9,0,0,1,1.077,4.928l-.085-.638a3.033,3.033,0,0,1,.018.68l.086-.638a1.609,1.609,0,0,1-.075.306l.242-.573a1.285,1.285,0,0,1-.108.2l.375-.485a1,1,0,0,1-.161.158l.486-.375a3.234,3.234,0,0,1-.39.207l.573-.242a2.9,2.9,0,0,1-.658.192l.638-.086a2.6,2.6,0,0,1-.617,0l.638.086c-.233-.033-.462-.089-.694-.121a2.657,2.657,0,0,0-1.85.242,2.4,2.4,0,0,0-.861,3.284,2.3,2.3,0,0,0,1.434,1.1c.519.07,1.023.2,1.55.225a4.919,4.919,0,0,0,2.269-.538,3.245,3.245,0,0,0,1.809-2.144,5.438,5.438,0,0,0-.024-2.324c-.268-1.587-.635-3.161-1.043-4.718a2.4,2.4,0,0,0-4.629,1.276Z"/>
</g>
</svg>